<svg width="252" height="253" viewBox="0 0 252 253" fill="none" xmlns="http://www.w3.org/2000/svg">
<g opacity="0.1" clip-path="url(#clip0_73_20666)">
<path d="M262.135 205.913L245.123 176.262L289.437 99.0869L289.441 99.0795C289.803 98.4233 290.023 97.6234 290.023 96.8808C290.023 96.1385 289.803 95.3371 289.441 94.6817L289.437 94.6746L245.123 17.5647L262.153 -12.1201L324.772 96.8808L262.135 205.913ZM254.457 -16.5706L237.443 13.0861H203.419L220.434 -16.5706H254.457ZM254.391 210.332H220.368L203.356 180.805H237.378L254.391 210.332ZM81.0772 218.313L81.3208 217.876L81.0772 218.313C81.7261 218.675 82.4583 218.898 83.2679 218.898H83.3328H171.892L188.906 248.489H63.6975L1.05883 139.517H35.0818L79.4555 216.683C79.4562 216.685 79.4569 216.686 79.4577 216.687C79.8272 217.353 80.4125 217.942 81.0772 218.313ZM80.8824 -24.2907L80.8823 -24.2907C80.2627 -23.9446 79.7121 -23.4103 79.3407 -22.799L79.2097 -22.7332L79.1348 -22.6028L34.8867 54.505H0.863867L63.5028 -54.5325H188.778L171.763 -24.8759H83.0732C82.3328 -24.8759 81.5357 -24.6554 80.8824 -24.2907ZM243.862 92.4667L203.355 22.0436H237.443L277.886 92.4667H243.862ZM203.355 171.847L243.862 101.359H277.886L237.443 171.847H203.355ZM213.597 214.353L196.584 244.007L179.554 214.386L196.585 184.702L213.597 214.353ZM91.0106 209.94L108.025 180.284H188.907L171.892 209.94H91.0106ZM83.2675 205.522L42.7621 135.038L59.7741 105.386L100.279 175.87L83.2675 205.522ZM52.031 100.902L35.0166 130.56H0.994675L18.0719 100.902H52.031ZM0.993101 63.3974H35.0166L52.0309 93.0544H18.0075L0.993101 63.3974ZM42.6972 58.9187L83.1378 -11.5002L100.15 18.1518L59.709 88.5704L42.6972 58.9187ZM171.828 -15.9834L188.842 13.6731H107.83L90.8159 -15.9834H171.828ZM196.584 -50.0483L213.532 -20.3974L196.585 9.18889L179.573 -20.462L196.584 -50.0483Z" stroke="white"/>
</g>
<defs>
<clipPath id="clip0_73_20666">
<rect width="332" height="308" fill="white" transform="translate(0 -55.0325)"/>
</clipPath>
</defs>
</svg>
