<svg class="animate-spin-slow origin-center" width="54" height="50" viewBox="0 0 54 50" fill="none"
    xmlns="http://www.w3.org/2000/svg" xmlns:xlink="http://www.w3.org/1999/xlink">
    <g mask="url(#mask0_21_10)">
        <path
            d="M42.6363 6.80856L39.7756 11.7853L47.0066 24.3435C47.0593 24.4387 47.0911 24.5554 47.0911 24.6612C47.0911 24.7671 47.0593 24.8835 47.0066 24.979L39.7756 37.5477L42.6363 42.5244L52.9181 24.6612L42.6363 6.79798V6.80856ZM38.6673 11.1394L41.5281 6.16265H35.8066L32.9458 11.1394H38.6779H38.6673ZM32.9352 12.4312L39.6173 24.0258H45.3388L38.6673 12.4312H32.9352ZM38.6673 36.9123L45.3388 25.3071H39.6173L32.9352 36.9123H38.6673ZM32.9352 38.2042L35.796 43.1598H41.5175L38.6567 38.2042H32.9246H32.9352ZM13.5436 44.3881C13.4275 44.3881 13.3219 44.3562 13.2269 44.3033C13.1319 44.2504 13.0474 44.1656 12.9946 44.0704L5.75312 31.5015H0.031669L10.3134 49.3542H30.8662L28.0054 44.3881H13.5541H13.5436ZM29.1139 43.7421L31.9746 48.7083L34.8354 43.7315L31.9746 38.7548L29.1139 43.7315V43.7421ZM30.8662 38.1196H17.5233L14.6625 43.0962H28.0054L30.8662 38.1196ZM16.4043 37.4842L9.7222 25.879L6.86151 30.8556L13.5436 42.4608L16.4043 37.4842ZM0.021113 30.2098H5.74257L8.60328 25.2329H2.89239L0.021113 30.2098ZM12.963 5.29437C13.0158 5.19908 13.1002 5.11438 13.1952 5.06142C13.2902 5.00848 13.4063 4.97671 13.5119 4.97671H27.9845L30.8452 0H10.2817L0 17.8632H5.72145L12.9419 5.30496L12.963 5.29437ZM8.60328 24.1213L5.74257 19.1445H0.021113L2.88183 24.1213H8.60328ZM13.5225 6.90387L6.85096 18.4985L9.7117 23.4752L16.3832 11.8806L13.5225 6.90387ZM27.9951 6.25796H14.6308L17.4916 11.2347H30.8556L27.9951 6.25796ZM31.9746 10.5887L34.8248 5.62262L31.9746 0.645912L29.1139 5.61204L31.9746 10.5887Z"
            fill="white" />
    </g>
</svg>
