<svg viewBox="0 0 295 270" fill="none" xmlns="http://www.w3.org/2000/svg">
<path fill-rule="evenodd" clip-rule="evenodd" d="M121.409 170.911L87.6006 200.2L249.132 256.143C256.224 258.612 264.132 259.867 271.58 258.403C278.254 257.064 284.028 253.842 288.38 248.57C292.732 243.298 294.74 236.959 294.782 230.117C294.845 222.544 292.188 215.075 288.422 208.59L227.437 102.959C226.203 100.993 224.801 99.1307 223.274 97.3733C215.7 88.6283 205.135 82.896 193.754 80.9921C191.39 80.5946 188.984 80.3645 186.578 80.3018L195.051 124.341L247.082 214.448L121.409 170.911Z" fill="#212952"/>
<path fill-rule="evenodd" clip-rule="evenodd" d="M161.285 184.719L203.545 199.364L171.243 31.4932C169.82 24.129 166.975 16.6392 161.975 10.9278C157.477 5.80211 151.786 2.43383 145.071 1.30409C138.313 0.15343 131.807 1.57606 125.886 4.96527C119.296 8.71014 114.149 14.7563 110.405 21.2419L49.4197 126.851C48.3527 128.923 47.4322 131.056 46.679 133.253C42.8923 144.174 43.227 156.245 47.2439 167.041C48.0807 169.279 49.0849 171.476 50.2356 173.589L84.1277 144.237L136.158 54.1088L161.285 184.719Z" fill="#055D81"/>
<path fill-rule="evenodd" clip-rule="evenodd" d="M153.313 143.275L144.861 99.3613L15.6318 211.268C9.96223 216.185 4.89933 222.398 2.47249 229.574C0.275775 236.039 0.192097 242.65 2.5771 249.052C4.9621 255.453 9.4392 260.37 15.3389 263.822C21.8663 267.65 29.6699 269.094 37.1805 269.094H159.15C161.473 268.989 163.774 268.717 166.054 268.278C177.414 266.081 187.666 259.784 195.009 250.893C196.536 249.031 197.938 247.085 199.193 245.035L156.828 230.348H52.7667L153.313 143.275Z" fill="#079DA3"/>
<path fill-rule="evenodd" clip-rule="evenodd" d="M121.409 170.911L87.6006 200.201L249.132 256.144L247.082 214.448L121.409 170.911Z" fill="url(#paint0_linear_150_200)"/>
<path fill-rule="evenodd" clip-rule="evenodd" d="M161.284 184.719L203.545 199.364L171.243 31.4932L136.158 54.1088L161.284 184.719Z" fill="url(#paint1_linear_150_200)"/>
<path fill-rule="evenodd" clip-rule="evenodd" d="M153.313 143.275L144.861 99.3613L15.6318 211.268L52.7667 230.348L153.313 143.275Z" fill="url(#paint2_linear_150_200)"/>
<defs>
<linearGradient id="paint0_linear_150_200" x1="87.6006" y1="213.527" x2="249.132" y2="213.527" gradientUnits="userSpaceOnUse">
<stop stop-color="#055D81"/>
<stop offset="0.901961" stop-color="#212952"/>
<stop offset="1" stop-color="#212952"/>
</linearGradient>
<linearGradient id="paint1_linear_150_200" x1="215.114" y1="192.69" x2="134.338" y2="52.7908" gradientUnits="userSpaceOnUse">
<stop stop-color="#079DA3"/>
<stop offset="0.901961" stop-color="#055D81"/>
<stop offset="1" stop-color="#055D81"/>
</linearGradient>
<linearGradient id="paint2_linear_150_200" x1="133.313" y1="92.6875" x2="52.5366" y2="232.587" gradientUnits="userSpaceOnUse">
<stop stop-color="#212952"/>
<stop offset="0.901961" stop-color="#079DA3"/>
<stop offset="1" stop-color="#079DA3"/>
</linearGradient>
</defs>
</svg>
