<svg width="48" height="49" viewBox="0 0 48 49" fill="none" xmlns="http://www.w3.org/2000/svg">
<path d="M0 0.947266H48V48.9473H0V0.947266Z" fill="white"/>
<path d="M5.22461 39.9473H23.2246V42.9473H5.22461V39.9473Z" fill="black"/>
<path d="M4.47266 13.3229L5.80866 12.0589C5.9358 12.2596 6.10864 12.4272 6.31305 12.5482C6.51746 12.6692 6.74761 12.74 6.98466 12.7549C7.49666 12.7549 7.83266 12.3949 7.83266 11.6989V6.96289H9.89666V11.7149C9.92751 12.0976 9.87797 12.4824 9.75121 12.8448C9.62446 13.2071 9.4233 13.539 9.16066 13.8189C8.88945 14.0838 8.56755 14.2912 8.21426 14.4287C7.86097 14.5661 7.48356 14.6308 7.10466 14.6189C6.59267 14.6395 6.08365 14.5318 5.62395 14.3054C5.16425 14.0791 4.76848 13.7413 4.47266 13.3229Z" fill="black"/>
<path d="M10.8248 6.96289H16.8488V8.7149H12.8488V9.8589H16.4408V11.4589H12.8808V12.6509H16.8808V14.4109H10.8008L10.8248 6.96289Z" fill="black"/>
<path d="M19.7849 8.7789H17.5449V6.96289H24.1129V8.7789H21.8649V14.4509H19.7849V8.7789Z" fill="black"/>
<path d="M5.30469 17.4117H8.84069C9.20777 17.3815 9.57719 17.4247 9.92742 17.5387C10.2777 17.6527 10.6017 17.8352 10.8807 18.0757C11.0397 18.2351 11.1649 18.425 11.2488 18.6339C11.3326 18.8429 11.3734 19.0666 11.3687 19.2917C11.3747 19.6568 11.2659 20.0145 11.0578 20.3144C10.8497 20.6144 10.5527 20.8415 10.2087 20.9637C10.6343 21.0417 11.0181 21.2692 11.2909 21.605C11.5637 21.9409 11.7076 22.3631 11.6967 22.7957C11.6967 24.1477 10.6487 24.9477 8.85669 24.9477H5.30469V17.4117ZM9.30469 19.7237C9.30469 19.3077 8.96869 19.0837 8.36069 19.0837H7.32869V20.3957H8.32869C8.95269 20.3957 9.32069 20.1797 9.32069 19.7477L9.30469 19.7237ZM8.58469 21.8517H7.32869V23.2357H8.62469C9.26469 23.2357 9.61669 22.9877 9.61669 22.5477C9.60069 22.1237 9.29669 21.8517 8.60069 21.8517H8.58469Z" fill="black"/>
<path d="M12.3597 17.4113H15.6797C16.1192 17.3755 16.5614 17.4278 16.9804 17.5652C17.3994 17.7025 17.7868 17.9222 18.1198 18.2113C18.3443 18.4407 18.5191 18.714 18.6334 19.0141C18.7476 19.3141 18.7989 19.6345 18.7838 19.9553C18.7982 20.4532 18.6573 20.9433 18.3806 21.3576C18.104 21.7719 17.7052 22.0898 17.2397 22.2673L19.0317 24.9473H16.6318L15.1198 22.6753H14.4237V24.9473H12.3438L12.3597 17.4113ZM15.5597 21.0113C16.2557 21.0113 16.6797 20.6673 16.6797 20.1153C16.6797 19.5153 16.2398 19.2113 15.5518 19.2113H14.4398V21.0273L15.5597 21.0113Z" fill="black"/>
<path d="M21.6721 17.3555H23.6721L26.8721 24.9075H24.6401L24.1041 23.5555H21.2001L20.6641 24.9475H18.4961L21.6721 17.3555ZM23.4961 21.9395L22.6561 19.8195L21.8081 21.9395H23.4961Z" fill="black"/>
<path d="M27.2012 17.3867H29.2812V24.8826H27.2012V17.3867Z" fill="black"/>
<path d="M30.0488 17.3867H32.0008L34.6968 21.3867V17.3867H36.7528V24.8826H34.9368L32.1128 20.7706V24.8826H30.0488V17.3867Z" fill="black"/>
<path d="M37.0957 23.7702L38.2477 22.3862C38.9224 22.9503 39.7685 23.2689 40.6477 23.2902C41.2157 23.2902 41.5117 23.0902 41.5117 22.7702C41.5117 22.4422 41.2717 22.2822 40.2397 22.0422C38.6397 21.6742 37.4157 21.2422 37.4157 19.6982C37.4157 18.3062 38.5197 17.2982 40.3197 17.2982C41.4324 17.2565 42.5237 17.6108 43.3997 18.2982L42.3997 19.7222C41.7945 19.2649 41.0619 19.0076 40.3037 18.9862C39.7997 18.9862 39.5517 19.1862 39.5517 19.4662C39.5517 19.8102 39.8077 19.9622 40.8557 20.1942C42.5757 20.5702 43.6397 21.1302 43.6397 22.5302C43.6397 24.0582 42.4317 24.9302 40.6157 24.9302C39.3403 24.9845 38.0889 24.5721 37.0957 23.7702Z" fill="black"/>
</svg>
