<svg width="181" height="42" viewBox="0 0 181 42" fill="none" xmlns="http://www.w3.org/2000/svg">
<g id="logo" clip-path="url(#clip0_80_25863)">
<g id="Capa_x0020_1">
<g id="_105553261973600">
<g id="Group">
<path id="Vector" d="M41.9336 27.1693V14.5058H46.692C48.1425 14.5058 49.2982 14.8697 50.1591 15.5923C51.0174 16.3149 51.4479 17.3052 51.4479 18.558C51.4479 19.8732 50.9731 20.8921 50.0209 21.6147C49.0713 22.3399 47.8816 22.7012 46.4546 22.7012H43.3684V27.1693H41.9336ZM43.3684 21.399H46.5094C47.5634 21.399 48.406 21.1417 49.0426 20.6296C49.6765 20.1176 49.9948 19.434 49.9948 18.5762C49.9948 17.6977 49.6895 17.0193 49.0791 16.541C48.466 16.0653 47.6338 15.8262 46.5825 15.8262H43.3684V21.399ZM54.0619 27.1693V14.5058H55.4941V25.8489H62.6474V27.1693H54.0619ZM64.2101 27.1693L70.0016 14.4174H71.3451L77.1341 27.1693H75.5923L74.1026 23.8215H67.1867L65.6788 27.1693H64.2101ZM67.7502 22.5375H73.5417L70.6538 16.0809L67.7502 22.5375ZM81.3655 27.1693V15.8262H77.0975V14.5058H87.084V15.8262H82.8186V27.1693H81.3655ZM87.0475 27.1693L92.839 14.4174H94.1825L99.9741 27.1693H98.4296L96.94 23.8215H90.0241L88.5188 27.1693H87.0475ZM90.5876 22.5375H96.3791L93.4912 16.0809L90.5876 22.5375ZM102.479 27.1693V14.5058H111.609V15.8262H103.913V20.3489H110.793V21.6511H103.913V27.1693H102.479ZM124.682 25.4668C123.458 26.7457 121.904 27.3851 120.015 27.3851C118.126 27.3851 116.579 26.7457 115.369 25.4668C114.158 24.1906 113.553 22.6466 113.553 20.8376C113.553 19.0415 114.163 17.5001 115.387 16.2161C116.608 14.9321 118.163 14.29 120.051 14.29C121.94 14.29 123.49 14.9295 124.698 16.2083C125.908 17.4845 126.513 19.0285 126.513 20.8376C126.513 22.6336 125.903 24.1776 124.682 25.4668ZM116.456 24.5467C117.414 25.5578 118.611 26.0647 120.051 26.0647C121.491 26.0647 122.681 25.5604 123.618 24.5545C124.557 23.5486 125.026 22.3087 125.026 20.8376C125.026 19.3794 124.552 18.1421 123.599 17.1284C122.65 16.1173 121.455 15.6105 120.015 15.6105C118.575 15.6105 117.385 16.1147 116.449 17.1206C115.509 18.1265 115.04 19.3664 115.04 20.8376C115.04 22.2957 115.512 23.533 116.456 24.5467ZM129.545 27.1693V14.5058H135.01C136.573 14.5058 137.775 14.9295 138.623 15.7742C139.276 16.424 139.604 17.2688 139.604 18.3059C139.604 19.317 139.289 20.1384 138.66 20.7648C138.031 21.3912 137.194 21.8019 136.153 21.9942L140.058 27.1693H138.297L134.611 22.249H130.98V27.1693H129.545ZM130.98 20.9649H134.882C135.853 20.9649 136.638 20.7284 137.243 20.2579C137.849 19.7875 138.151 19.1428 138.151 18.3241C138.151 17.5391 137.864 16.9283 137.288 16.4864C136.714 16.0471 135.918 15.8262 134.901 15.8262H130.98V20.9649ZM142.672 27.1693V14.5058H144.123L148.753 21.4172L153.381 14.5058H154.834V27.1693H153.4V16.9127L148.772 23.6941H148.699L144.068 16.9309V27.1693H142.672ZM158.283 27.1693V14.5058H161.08V27.1693H158.283ZM163.167 27.1693L168.614 14.4174H171.192L176.639 27.1693H173.714L172.553 24.3284H167.179L166.018 27.1693H163.167ZM168.178 21.8695H171.554L169.866 17.7626L168.178 21.8695Z" fill="#079DA3"/>
<g id="Group_2">
<path id="Vector_2" fill-rule="evenodd" clip-rule="evenodd" d="M17.4268 25.4616L13.2109 29.1006L33.3534 36.051C34.2378 36.3577 35.2239 36.5136 36.1527 36.3317C36.9849 36.1653 37.7049 35.7651 38.2475 35.11C38.7902 34.455 39.0406 33.6675 39.0458 32.8175C39.0537 31.8766 38.7223 30.9486 38.2528 30.1429L30.6481 17.0192C30.4942 16.7749 30.3194 16.5436 30.129 16.3252C29.1846 15.2388 27.8671 14.5266 26.448 14.29C26.1532 14.2406 25.8532 14.2121 25.5531 14.2043L26.6097 19.6757L33.0978 30.8707L17.4268 25.4616Z" fill="#212952"/>
<path id="Vector_3" fill-rule="evenodd" clip-rule="evenodd" d="M22.3992 27.1771L27.669 28.9966L23.641 8.1402C23.4636 7.22527 23.1088 6.29473 22.4853 5.58514C21.9244 4.94832 21.2148 4.52984 20.3774 4.38948C19.5348 4.24652 18.7234 4.42327 17.9851 4.84435C17.1634 5.30962 16.5216 6.0608 16.0546 6.86657L8.44999 19.9876C8.31694 20.2449 8.20216 20.51 8.10824 20.783C7.63605 22.1398 7.67779 23.6395 8.17868 24.9808C8.28303 25.2589 8.40825 25.5318 8.55174 25.7943L12.778 22.1476L19.2661 10.95L22.3992 27.1771Z" fill="#055D81"/>
<path id="Vector_4" fill-rule="evenodd" clip-rule="evenodd" d="M21.4058 22.028L20.3519 16.5722L4.23733 30.4756C3.53035 31.0864 2.89902 31.8584 2.5964 32.7499C2.32247 33.5531 2.31204 34.3745 2.60944 35.1698C2.90685 35.9652 3.46513 36.576 4.20081 37.0049C5.01475 37.4806 5.98783 37.6599 6.92439 37.6599H22.1337C22.4232 37.6469 22.7102 37.6131 22.9946 37.5585C24.4111 37.2856 25.6894 36.5032 26.6051 35.3986C26.7956 35.1672 26.9704 34.9255 27.1269 34.6708L21.8441 32.8461H8.86794L21.4058 22.028Z" fill="#079DA3"/>
<path id="Vector_5" fill-rule="evenodd" clip-rule="evenodd" d="M17.4268 25.4616L13.2109 29.1006L33.3534 36.051L33.0978 30.8707L17.4268 25.4616Z" fill="url(#paint0_linear_80_25863)"/>
<path id="Vector_6" fill-rule="evenodd" clip-rule="evenodd" d="M22.3988 27.1771L27.6686 28.9966L23.6406 8.14021L19.2656 10.95L22.3988 27.1771Z" fill="url(#paint1_linear_80_25863)"/>
<path id="Vector_7" fill-rule="evenodd" clip-rule="evenodd" d="M21.4048 22.028L20.3509 16.5722L4.23633 30.4756L8.86694 32.8461L21.4048 22.028Z" fill="url(#paint2_linear_80_25863)"/>
</g>
</g>
</g>
</g>
</g>
<defs>
<linearGradient id="paint0_linear_80_25863" x1="13.2109" y1="30.7563" x2="33.3534" y2="30.7563" gradientUnits="userSpaceOnUse">
<stop stop-color="#055D81"/>
<stop offset="0.901961" stop-color="#212952"/>
<stop offset="1" stop-color="#212952"/>
</linearGradient>
<linearGradient id="paint1_linear_80_25863" x1="29.1112" y1="28.1675" x2="19.0939" y2="10.7545" gradientUnits="userSpaceOnUse">
<stop stop-color="#079DA3"/>
<stop offset="0.901961" stop-color="#055D81"/>
<stop offset="1" stop-color="#055D81"/>
</linearGradient>
<linearGradient id="paint2_linear_80_25863" x1="18.9108" y1="15.743" x2="8.8935" y2="33.156" gradientUnits="userSpaceOnUse">
<stop stop-color="#212952"/>
<stop offset="0.901961" stop-color="#079DA3"/>
<stop offset="1" stop-color="#079DA3"/>
</linearGradient>
<clipPath id="clip0_80_25863">
<rect width="181" height="41.162" fill="white" transform="translate(0 0.419006)"/>
</clipPath>
</defs>
</svg>
