<svg width="638" height="624" viewBox="0 0 638 624" fill="none" xmlns="http://www.w3.org/2000/svg">
<mask id="mask0_80_25986" style="mask-type:alpha" maskUnits="userSpaceOnUse" x="29" y="24" width="581" height="528">
<g opacity="0.5">
<mask id="path-1-inside-1_80_25986" fill="white">
<path fill-rule="evenodd" clip-rule="evenodd" d="M361.909 85.2378L424.193 407.738L515.309 439.188L412.281 261.416L395.503 174.532C400.267 174.655 405.031 175.109 409.713 175.894C432.249 179.65 453.169 190.959 468.166 208.212C471.19 211.679 473.965 215.353 476.41 219.233L597.168 427.631C604.625 440.426 609.886 455.162 609.762 470.103C609.679 483.6 605.702 496.106 597.086 506.508C588.469 516.909 577.035 523.266 563.82 525.907C549.072 528.796 533.413 526.32 519.369 521.449L204.396 412.764L131.888 475.326H337.945L421.834 504.302C419.348 508.346 416.573 512.185 413.548 515.859C399.008 533.401 378.708 545.824 356.214 550.158C351.698 551.025 347.141 551.562 342.543 551.768H101.025C86.1531 551.768 70.7009 548.92 57.7758 541.367C46.0935 534.556 37.2282 524.857 32.5055 512.226C27.7829 499.596 27.9486 486.553 32.2984 473.799C37.1039 459.642 47.1292 447.383 58.3558 437.683L309.958 220.604L292.436 129.856L189.408 307.67L122.297 365.579C120.018 361.41 118.03 357.076 116.373 352.66C108.419 331.362 107.756 307.546 115.254 286C116.746 281.666 118.568 277.456 120.681 273.37L241.44 65.0129C248.855 52.2176 259.046 40.2891 272.096 32.9008C283.82 26.2142 296.703 23.4075 310.084 25.6777C323.382 27.9065 334.65 34.5518 343.557 44.6642C353.458 55.9324 359.092 70.7089 361.909 85.2378ZM271.36 354.986L340.513 378.855L326.687 307.247L271.36 354.986Z"/>
</mask>
<path fill-rule="evenodd" clip-rule="evenodd" d="M361.909 85.2378L424.193 407.738L515.309 439.188L412.281 261.416L395.503 174.532C400.267 174.655 405.031 175.109 409.713 175.894C432.249 179.65 453.169 190.959 468.166 208.212C471.19 211.679 473.965 215.353 476.41 219.233L597.168 427.631C604.625 440.426 609.886 455.162 609.762 470.103C609.679 483.6 605.702 496.106 597.086 506.508C588.469 516.909 577.035 523.266 563.82 525.907C549.072 528.796 533.413 526.32 519.369 521.449L204.396 412.764L131.888 475.326H337.945L421.834 504.302C419.348 508.346 416.573 512.185 413.548 515.859C399.008 533.401 378.708 545.824 356.214 550.158C351.698 551.025 347.141 551.562 342.543 551.768H101.025C86.1531 551.768 70.7009 548.92 57.7758 541.367C46.0935 534.556 37.2282 524.857 32.5055 512.226C27.7829 499.596 27.9486 486.553 32.2984 473.799C37.1039 459.642 47.1292 447.383 58.3558 437.683L309.958 220.604L292.436 129.856L189.408 307.67L122.297 365.579C120.018 361.41 118.03 357.076 116.373 352.66C108.419 331.362 107.756 307.546 115.254 286C116.746 281.666 118.568 277.456 120.681 273.37L241.44 65.0129C248.855 52.2176 259.046 40.2891 272.096 32.9008C283.82 26.2142 296.703 23.4075 310.084 25.6777C323.382 27.9065 334.65 34.5518 343.557 44.6642C353.458 55.9324 359.092 70.7089 361.909 85.2378ZM271.36 354.986L340.513 378.855L326.687 307.247L271.36 354.986Z" fill="url(#paint0_linear_80_25986)"/>
<path d="M424.193 407.738L421.248 408.307L421.576 410.009L423.214 410.574L424.193 407.738ZM361.909 85.2378L364.854 84.6689L364.854 84.6667L361.909 85.2378ZM515.309 439.188L514.33 442.024L521.943 444.651L517.905 437.684L515.309 439.188ZM412.281 261.416L409.335 261.985L409.431 262.482L409.685 262.92L412.281 261.416ZM395.503 174.532L395.581 171.533L391.85 171.436L392.558 175.1L395.503 174.532ZM409.713 175.894L409.217 178.852L409.219 178.853L409.713 175.894ZM468.166 208.212L465.901 210.18L465.905 210.184L468.166 208.212ZM476.41 219.233L479.005 217.728L478.977 217.68L478.948 217.634L476.41 219.233ZM597.168 427.631L594.573 429.135L594.576 429.142L597.168 427.631ZM609.762 470.103L606.762 470.078L606.762 470.085L609.762 470.103ZM563.82 525.907L564.397 528.851L564.408 528.849L563.82 525.907ZM519.369 521.449L520.352 518.615L520.348 518.614L519.369 521.449ZM204.396 412.764L205.374 409.928L203.743 409.365L202.436 410.493L204.396 412.764ZM131.888 475.326L129.928 473.055L123.819 478.326H131.888V475.326ZM337.945 475.326L338.924 472.491L338.448 472.326H337.945V475.326ZM421.834 504.302L424.39 505.872L426.347 502.687L422.813 501.466L421.834 504.302ZM413.548 515.859L415.858 517.773L415.864 517.765L413.548 515.859ZM356.214 550.158L356.779 553.104L356.781 553.104L356.214 550.158ZM342.543 551.768V554.768H342.61L342.678 554.765L342.543 551.768ZM57.7758 541.367L59.2895 538.777L59.2867 538.775L57.7758 541.367ZM32.5055 512.226L29.6955 513.277L32.5055 512.226ZM32.2984 473.799L35.1378 474.768L35.1392 474.763L32.2984 473.799ZM58.3558 437.683L56.396 435.412L56.3945 435.413L58.3558 437.683ZM309.958 220.604L311.918 222.876L313.233 221.741L312.904 220.035L309.958 220.604ZM292.436 129.856L295.382 129.287L293.861 121.413L289.841 128.352L292.436 129.856ZM189.408 307.67L191.368 309.941L191.751 309.611L192.004 309.174L189.408 307.67ZM122.297 365.579L119.664 367.018L121.445 370.276L124.257 367.85L122.297 365.579ZM116.373 352.66L113.562 353.709L113.564 353.714L116.373 352.66ZM115.254 286L118.088 286.986L118.091 286.976L115.254 286ZM120.681 273.37L118.086 271.866L118.049 271.928L118.016 271.992L120.681 273.37ZM241.44 65.0129L244.036 66.5172L244.036 66.5172L241.44 65.0129ZM272.096 32.9008L273.574 35.5115L273.582 35.5068L272.096 32.9008ZM310.084 25.6777L309.582 28.6354L309.588 28.6364L310.084 25.6777ZM343.557 44.6642L345.811 42.684L345.808 42.6814L343.557 44.6642ZM340.513 378.855L339.535 381.691L344.444 383.385L343.459 378.286L340.513 378.855ZM271.36 354.986L269.4 352.714L265.452 356.121L270.381 357.822L271.36 354.986ZM326.687 307.247L329.633 306.678L328.651 301.591L324.727 304.976L326.687 307.247ZM427.139 407.169L364.854 84.6689L358.963 85.8066L421.248 408.307L427.139 407.169ZM516.288 436.352L425.172 404.902L423.214 410.574L514.33 442.024L516.288 436.352ZM409.685 262.92L512.714 440.692L517.905 437.684L414.877 259.911L409.685 262.92ZM392.558 175.1L409.335 261.985L415.227 260.847L398.449 173.963L392.558 175.1ZM410.208 172.935C405.387 172.127 400.483 171.66 395.581 171.533L395.425 177.531C400.052 177.651 404.676 178.092 409.217 178.852L410.208 172.935ZM470.43 206.244C454.955 188.441 433.397 176.8 410.206 172.934L409.219 178.853C431.1 182.5 451.383 193.477 465.901 210.18L470.43 206.244ZM478.948 217.634C476.413 213.61 473.543 209.813 470.426 206.24L465.905 210.184C468.837 213.546 471.518 217.095 473.871 220.832L478.948 217.634ZM599.764 426.127L479.005 217.728L473.814 220.737L594.573 429.135L599.764 426.127ZM612.762 470.128C612.892 454.483 607.392 439.216 599.76 426.12L594.576 429.142C601.858 441.636 606.881 455.84 606.762 470.078L612.762 470.128ZM599.396 508.422C608.509 497.421 612.676 484.22 612.762 470.122L606.762 470.085C606.683 482.98 602.896 494.792 594.775 504.594L599.396 508.422ZM564.408 528.849C578.233 526.085 590.299 519.402 599.396 508.422L594.775 504.594C586.638 514.416 575.837 520.446 563.232 522.965L564.408 528.849ZM518.386 524.284C532.742 529.262 548.962 531.875 564.397 528.851L563.243 522.963C549.182 525.718 534.084 523.377 520.352 518.615L518.386 524.284ZM203.417 415.6L518.391 524.285L520.348 518.614L205.374 409.928L203.417 415.6ZM133.848 477.598L206.356 415.036L202.436 410.493L129.928 473.055L133.848 477.598ZM337.945 472.326H131.888V478.326H337.945V472.326ZM422.813 501.466L338.924 472.491L336.965 478.162L420.854 507.137L422.813 501.466ZM415.864 517.765C418.968 513.995 421.826 510.045 424.39 505.872L419.278 502.731C416.871 506.648 414.177 510.375 411.232 513.952L415.864 517.765ZM356.781 553.104C379.989 548.633 400.893 535.826 415.858 517.773L411.239 513.944C397.122 530.975 377.428 543.016 355.646 547.212L356.781 553.104ZM342.678 554.765C347.42 554.552 352.121 553.999 356.779 553.104L355.648 547.212C351.275 548.051 346.862 548.571 342.408 548.771L342.678 554.765ZM101.025 554.768H342.543V548.768H101.025V554.768ZM56.2622 543.957C69.7865 551.86 85.8108 554.768 101.025 554.768V548.768C86.4954 548.768 71.6154 545.98 59.2895 538.777L56.2622 543.957ZM29.6955 513.277C34.6903 526.635 44.0626 536.845 56.2649 543.958L59.2867 538.775C48.1244 532.268 39.766 523.078 35.3155 511.176L29.6955 513.277ZM29.459 472.831C24.9046 486.185 24.71 499.944 29.6955 513.277L35.3155 511.176C30.8558 499.249 30.9926 486.922 35.1378 474.768L29.459 472.831ZM56.3945 435.413C44.928 445.32 34.4932 458 29.4576 472.835L35.1392 474.763C39.7146 461.284 49.3304 449.446 60.3171 439.953L56.3945 435.413ZM307.998 218.333L56.396 435.412L60.3155 439.955L311.918 222.876L307.998 218.333ZM289.491 130.425L307.013 221.173L312.904 220.035L295.382 129.287L289.491 130.425ZM192.004 309.174L295.032 131.36L289.841 128.352L186.812 306.166L192.004 309.174ZM124.257 367.85L191.368 309.941L187.448 305.398L120.337 363.307L124.257 367.85ZM113.564 353.714C115.271 358.264 117.319 362.726 119.664 367.018L124.929 364.14C122.718 360.094 120.788 355.888 119.182 351.606L113.564 353.714ZM112.421 285.014C104.681 307.254 105.377 331.79 113.562 353.709L119.183 351.61C111.461 330.933 110.831 307.838 118.088 286.986L112.421 285.014ZM118.016 271.992C115.841 276.2 113.959 280.544 112.418 285.024L118.091 286.976C119.532 282.789 121.296 278.713 123.346 274.748L118.016 271.992ZM238.844 63.5086L118.086 271.866L123.277 274.874L244.036 66.5172L238.844 63.5086ZM270.618 30.2902C256.962 38.0215 246.432 50.4166 238.844 63.5087L244.036 66.5172C251.279 54.0186 261.13 42.5566 273.574 35.5114L270.618 30.2902ZM310.586 22.7199C296.442 20.3204 282.861 23.3071 270.61 30.2949L273.582 35.5068C284.778 29.1214 296.964 26.4947 309.582 28.6354L310.586 22.7199ZM345.808 42.6814C336.483 32.0934 324.611 25.0706 310.58 22.7189L309.588 28.6364C322.153 30.7424 332.818 37.0103 341.306 46.6471L345.808 42.6814ZM364.854 84.6667C361.976 69.8242 356.181 54.4865 345.811 42.6841L341.303 46.6444C350.735 57.3782 356.208 71.5936 358.964 85.8088L364.854 84.6667ZM341.492 376.019L272.338 352.15L270.381 357.822L339.535 381.691L341.492 376.019ZM323.742 307.816L337.568 379.424L343.459 378.286L329.633 306.678L323.742 307.816ZM273.319 357.257L328.647 309.519L324.727 304.976L269.4 352.714L273.319 357.257Z" fill="url(#paint1_linear_80_25986)" mask="url(#path-1-inside-1_80_25986)"/>
</g>
</mask>
<g mask="url(#mask0_80_25986)">
<rect width="580.764" height="526.866" transform="translate(29 24.9023)" fill="url(#paint2_linear_80_25986)"/>
</g>
<defs>
<linearGradient id="paint0_linear_80_25986" x1="319.382" y1="24.9023" x2="319.382" y2="551.768" gradientUnits="userSpaceOnUse">
<stop stop-color="#00B4BC"/>
<stop offset="1" stop-color="#01393B"/>
</linearGradient>
<linearGradient id="paint1_linear_80_25986" x1="319.382" y1="24.9023" x2="319.382" y2="551.768" gradientUnits="userSpaceOnUse">
<stop stop-color="white"/>
<stop offset="1" stop-color="#006265"/>
</linearGradient>
<linearGradient id="paint2_linear_80_25986" x1="290" y1="-935" x2="290" y2="552" gradientUnits="userSpaceOnUse">
<stop stop-color="white"/>
<stop offset="1" stop-color="white" stop-opacity="0"/>
</linearGradient>
</defs>
</svg>
