<svg width="252" height="253" viewBox="0 0 252 253" fill="none" xmlns="http://www.w3.org/2000/svg">
<g opacity="0.1">
<mask id="path-1-inside-1_160_127" fill="white">
<path fill-rule="evenodd" clip-rule="evenodd" d="M185.893 4.03996L214.872 154.09L257.264 168.722L209.328 86.0103L201.522 45.5857C203.739 45.6433 205.955 45.8545 208.133 46.2194C218.619 47.967 228.352 53.2289 235.33 61.2562C236.737 62.8694 238.028 64.5785 239.165 66.3837L295.351 163.345C298.82 169.298 301.268 176.154 301.21 183.106C301.172 189.386 299.321 195.205 295.312 200.044C291.303 204.883 285.983 207.841 279.835 209.07C272.973 210.414 265.687 209.262 259.153 206.996L112.606 156.428L78.8708 185.536H174.743L213.774 199.017C212.617 200.899 211.326 202.685 209.919 204.395C203.153 212.556 193.709 218.337 183.243 220.353C181.142 220.756 179.022 221.006 176.882 221.102H64.5113C57.5917 221.102 50.4023 219.777 44.3886 216.263C38.9532 213.094 34.8284 208.581 32.6311 202.705C30.4338 196.828 30.5109 190.76 32.5347 184.826C34.7706 178.239 39.435 172.535 44.6585 168.022L161.722 67.0213L153.57 24.7996L105.634 107.531L74.4089 134.474C73.3488 132.534 72.4237 130.518 71.6527 128.463C67.952 118.554 67.6436 107.473 71.1323 97.4486C71.8262 95.4322 72.6742 93.4734 73.6572 91.5722L129.843 -5.37004C133.293 -11.3233 138.034 -16.8733 144.106 -20.3108C149.561 -23.4219 155.555 -24.7277 161.781 -23.6715C167.968 -22.6345 173.21 -19.5426 177.354 -14.8376C181.961 -9.59493 184.582 -2.71987 185.893 4.03996ZM143.762 129.546L175.939 140.652L169.505 107.334L143.762 129.546Z"/>
</mask>
<path d="M214.872 154.09L213.89 154.28L214 154.847L214.546 155.035L214.872 154.09ZM185.893 4.03996L186.875 3.85034L186.875 3.84962L185.893 4.03996ZM257.264 168.722L256.938 169.667L259.475 170.543L258.129 168.221L257.264 168.722ZM209.328 86.0103L208.346 86.1999L208.378 86.3656L208.463 86.5117L209.328 86.0103ZM201.522 45.5857L201.548 44.586L200.304 44.5537L200.54 45.7753L201.522 45.5857ZM208.133 46.2194L207.968 47.2057L207.969 47.2058L208.133 46.2194ZM235.33 61.2562L234.575 61.9122L234.576 61.9135L235.33 61.2562ZM239.165 66.3837L240.03 65.8823L240.021 65.8663L240.011 65.8507L239.165 66.3837ZM295.351 163.345L294.485 163.846L294.487 163.849L295.351 163.345ZM301.21 183.106L300.21 183.098V183.1L301.21 183.106ZM295.312 200.044L294.542 199.406L295.312 200.044ZM279.835 209.07L280.027 210.051L280.031 210.051L279.835 209.07ZM259.153 206.996L259.481 206.051L259.479 206.051L259.153 206.996ZM112.606 156.428L112.932 155.483L112.388 155.295L111.953 155.671L112.606 156.428ZM78.8708 185.536L78.2176 184.779L76.1811 186.536H78.8708V185.536ZM174.743 185.536L175.069 184.591L174.91 184.536H174.743V185.536ZM213.774 199.017L214.626 199.541L215.278 198.479L214.1 198.072L213.774 199.017ZM209.919 204.395L210.689 205.033L210.691 205.03L209.919 204.395ZM183.243 220.353L183.431 221.335L183.432 221.335L183.243 220.353ZM176.882 221.102V222.102H176.904L176.927 222.101L176.882 221.102ZM44.3886 216.263L44.8932 215.399L44.8922 215.399L44.3886 216.263ZM32.6311 202.705L31.6945 203.055L32.6311 202.705ZM32.5347 184.826L33.4812 185.148L33.4817 185.147L32.5347 184.826ZM44.6585 168.022L44.0052 167.265L44.0047 167.265L44.6585 168.022ZM161.722 67.0213L162.375 67.7784L162.813 67.4002L162.704 66.8317L161.722 67.0213ZM153.57 24.7996L154.551 24.61L154.045 21.9851L152.704 24.2982L153.57 24.7996ZM105.634 107.531L106.287 108.288L106.415 108.178L106.499 108.032L105.634 107.531ZM74.4089 134.474L73.5314 134.954L74.1251 136.04L75.0622 135.231L74.4089 134.474ZM71.6527 128.463L70.7159 128.813L70.7164 128.814L71.6527 128.463ZM71.1323 97.4486L72.0767 97.7773L72.0778 97.774L71.1323 97.4486ZM73.6572 91.5722L72.792 91.0707L72.78 91.0915L72.7689 91.1129L73.6572 91.5722ZM129.843 -5.37004L130.708 -4.8686L130.708 -4.86862L129.843 -5.37004ZM144.106 -20.3108L144.599 -19.4406L144.601 -19.4422L144.106 -20.3108ZM161.781 -23.6715L161.613 -22.6856L161.615 -22.6853L161.781 -23.6715ZM177.354 -14.8376L178.106 -15.4977L178.105 -15.4986L177.354 -14.8376ZM175.939 140.652L175.612 141.597L177.249 142.162L176.92 140.462L175.939 140.652ZM143.762 129.546L143.109 128.789L141.793 129.924L143.436 130.491L143.762 129.546ZM169.505 107.334L170.487 107.144L170.16 105.448L168.852 106.577L169.505 107.334ZM215.854 153.901L186.875 3.85034L184.911 4.22959L213.89 154.28L215.854 153.901ZM257.59 167.777L215.198 153.145L214.546 155.035L256.938 169.667L257.59 167.777ZM208.463 86.5117L256.399 169.224L258.129 168.221L210.193 85.5088L208.463 86.5117ZM200.54 45.7753L208.346 86.1999L210.31 85.8207L202.504 45.3961L200.54 45.7753ZM208.298 45.2332C206.074 44.8604 203.81 44.6448 201.548 44.586L201.496 46.5854C203.667 46.6418 205.837 46.8486 207.968 47.2057L208.298 45.2332ZM236.084 60.6002C228.948 52.3895 219.001 47.017 208.298 45.233L207.969 47.2058C218.236 48.917 227.757 54.0684 234.575 61.9122L236.084 60.6002ZM240.011 65.8507C238.844 63.9976 237.521 62.2471 236.083 60.5989L234.576 61.9135C235.952 63.4916 237.212 65.1594 238.319 66.9167L240.011 65.8507ZM296.216 162.844L240.03 65.8823L238.3 66.8851L294.485 163.846L296.216 162.844ZM302.21 183.114C302.27 175.928 299.742 168.895 296.215 162.842L294.487 163.849C297.898 169.702 300.266 176.38 300.21 183.098L302.21 183.114ZM296.082 200.682C300.257 195.643 302.17 189.592 302.21 183.112L300.21 183.1C300.173 189.179 298.386 194.766 294.542 199.406L296.082 200.682ZM280.031 210.051C286.382 208.781 291.913 205.715 296.082 200.682L294.542 199.406C290.693 204.052 285.584 206.901 279.639 208.089L280.031 210.051ZM258.825 207.941C265.463 210.243 272.936 211.44 280.027 210.051L279.642 208.089C273.01 209.388 265.911 208.281 259.481 206.051L258.825 207.941ZM112.28 157.374L258.827 207.941L259.479 206.051L112.932 155.483L112.28 157.374ZM79.5241 186.293L113.259 157.185L111.953 155.671L78.2176 184.779L79.5241 186.293ZM174.743 184.536H78.8708V186.536H174.743V184.536ZM214.1 198.072L175.069 184.591L174.416 186.481L213.447 199.963L214.1 198.072ZM210.691 205.03C212.124 203.289 213.443 201.466 214.626 199.541L212.922 198.494C211.791 200.333 210.527 202.082 209.147 203.759L210.691 205.03ZM183.432 221.335C194.135 219.273 203.782 213.365 210.689 205.033L209.149 203.756C202.525 211.748 193.282 217.401 183.053 219.371L183.432 221.335ZM176.927 222.101C179.115 222.003 181.283 221.748 183.431 221.335L183.054 219.371C181.001 219.765 178.928 220.009 176.837 220.103L176.927 222.101ZM64.5113 222.102H176.882V220.102H64.5113V222.102ZM43.8841 217.126C50.0975 220.757 57.4776 222.102 64.5113 222.102V220.102C57.7058 220.102 50.7071 218.797 44.8932 215.399L43.8841 217.126ZM31.6945 203.055C33.9825 209.174 38.2762 213.857 43.885 217.127L44.8922 215.399C39.6301 212.331 35.6744 207.988 33.5678 202.354L31.6945 203.055ZM31.5883 184.503C29.4963 190.637 29.4095 196.944 31.6945 203.055L33.5678 202.354C31.4581 196.712 31.5256 190.883 33.4812 185.148L31.5883 184.503ZM44.0047 167.265C38.7013 171.847 33.9004 177.691 31.5878 184.504L33.4817 185.147C35.6408 178.786 40.1688 173.223 45.3122 168.779L44.0047 167.265ZM161.069 66.2641L44.0052 167.265L45.3117 168.779L162.375 67.7784L161.069 66.2641ZM152.588 24.9891L160.74 67.2109L162.704 66.8317L154.551 24.61L152.588 24.9891ZM106.499 108.032L154.435 25.3009L152.704 24.2982L104.769 107.029L106.499 108.032ZM75.0622 135.231L106.287 108.288L104.98 106.774L73.7556 133.717L75.0622 135.231ZM70.7164 128.814C71.5041 130.914 72.449 132.973 73.5314 134.954L75.2864 133.994C74.2486 132.096 73.3432 130.122 72.589 128.112L70.7164 128.814ZM70.1878 97.1199C66.6186 107.376 66.9378 118.697 70.7159 128.813L72.5895 128.113C68.9661 118.411 68.6685 107.57 72.0767 97.7773L70.1878 97.1199ZM72.7689 91.1129C71.765 93.0546 70.8973 95.0581 70.1867 97.1232L72.0778 97.774C72.755 95.8063 73.5835 93.8921 74.5455 92.0314L72.7689 91.1129ZM128.977 -5.87148L72.792 91.0707L74.5224 92.0736L130.708 -4.8686L128.977 -5.87148ZM143.613 -21.181C137.34 -17.6291 132.485 -11.9236 128.977 -5.87146L130.708 -4.86862C134.101 -10.723 138.729 -16.1174 144.599 -19.4406L143.613 -21.181ZM161.948 -24.6574C155.468 -25.7568 149.241 -24.3909 143.61 -21.1795L144.601 -19.4422C149.88 -22.4528 155.642 -23.6987 161.613 -22.6856L161.948 -24.6574ZM178.105 -15.4986C173.821 -20.3621 168.377 -23.5798 161.946 -24.6578L161.615 -22.6853C167.558 -21.6892 172.6 -18.7232 176.604 -14.1767L178.105 -15.4986ZM186.875 3.84962C185.544 -3.01478 182.869 -10.0769 178.106 -15.4977L176.603 -14.1776C181.053 -9.11298 183.621 -2.42497 184.911 4.23031L186.875 3.84962ZM176.265 139.706L144.089 128.6L143.436 130.491L175.612 141.597L176.265 139.706ZM168.524 107.523L174.957 140.841L176.92 140.462L170.487 107.144L168.524 107.523ZM144.416 130.303L170.159 108.091L168.852 106.577L143.109 128.789L144.416 130.303Z" fill="white" mask="url(#path-1-inside-1_160_127)"/>
</g>
</svg>
