<svg width="252" height="253" viewBox="0 0 252 253" fill="none" xmlns="http://www.w3.org/2000/svg">
<g opacity="0.1">
<path fill-rule="evenodd" clip-rule="evenodd" d="M185.893 4.03996L214.872 154.09L257.264 168.722L209.328 86.0103L201.522 45.5857C203.739 45.6433 205.955 45.8545 208.133 46.2194C218.619 47.967 228.352 53.2289 235.33 61.2562C236.737 62.8694 238.028 64.5785 239.165 66.3837L295.351 163.345C298.82 169.298 301.268 176.154 301.21 183.106C301.172 189.386 299.321 195.205 295.312 200.044C291.303 204.883 285.983 207.841 279.835 209.07C272.973 210.414 265.687 209.262 259.153 206.996L112.606 156.428L78.8708 185.536H174.743L213.774 199.017C212.617 200.899 211.326 202.685 209.919 204.395C203.153 212.556 193.709 218.337 183.243 220.353C181.142 220.756 179.022 221.006 176.882 221.102H64.5113C57.5917 221.102 50.4023 219.777 44.3886 216.263C38.9532 213.094 34.8284 208.581 32.6311 202.705C30.4338 196.828 30.5109 190.76 32.5347 184.826C34.7706 178.239 39.435 172.535 44.6585 168.022L161.722 67.0213L153.57 24.7996L105.634 107.531L74.4089 134.474C73.3488 132.534 72.4237 130.518 71.6527 128.463C67.952 118.554 67.6436 107.473 71.1323 97.4486C71.8262 95.4322 72.6742 93.4734 73.6572 91.5722L129.843 -5.37004C133.293 -11.3233 138.034 -16.8733 144.106 -20.3108C149.561 -23.4219 155.555 -24.7277 161.781 -23.6715C167.968 -22.6345 173.21 -19.5426 177.354 -14.8376C181.961 -9.59493 184.582 -2.71987 185.893 4.03996ZM143.762 129.546L175.939 140.652L169.505 107.334L143.762 129.546Z" fill="white"/>
</g>
</svg>
