<svg width="180" height="43" viewBox="0 0 235 43" fill="none" xmlns="http://www.w3.org/2000/svg">
    <path
        d="M91.7112 12.0481C87.9602 12.0481 84.8322 13.8478 82.8142 17.0106H82.2542V13.1237H77.6152V41.5999H82.2542V24.9656C82.2542 20.003 86.3432 16.2865 91.0982 16.2865C95.8532 16.2865 98.8222 19.7795 98.8222 24.5717V41.5999H103.471V24.5717C103.471 17.3514 98.8862 12.0481 91.7222 12.0481H91.7112Z"
        fill="white" />
    <path
        d="M57.8578 11.9846C48.9608 11.9846 42.6948 18.3529 42.6948 27.3195C42.6948 36.2863 48.9608 42.7185 57.8578 42.7185C66.7548 42.7185 73.0208 36.3502 73.0208 27.3195C73.0208 18.289 66.7018 11.9846 57.8578 11.9846ZM57.8578 38.4907C51.6978 38.4907 47.3338 33.8049 47.3338 27.3302C47.3338 20.8555 51.6978 16.223 57.8578 16.223C64.0178 16.223 68.3718 20.8981 68.3718 27.3302C68.3718 33.7624 63.9548 38.4907 57.8578 38.4907Z"
        fill="white" />
    <path
        d="M34.2728 29.2581C32.318 34.6252 26.8446 38.4909 20.8216 38.4909C11.9247 38.4909 5.48982 31.4411 5.48982 21.6865C5.48982 11.9318 11.8719 4.93522 20.8216 4.93522C27.0664 4.93522 32.635 9.06711 34.3363 14.8603H39.514C37.559 6.51131 29.7187 0.419922 20.8216 0.419922C8.95563 0.419922 0.396726 9.33331 0.396726 21.6758C0.343926 34.0289 8.95563 42.9957 20.8216 42.9957C29.6553 42.9957 37.485 37.1919 39.45 29.2474H34.2728V29.2581Z"
        fill="white" />
    <path
        d="M116.044 34.092V16.8402H123.313V13.1236H116.044L116.097 3.93335H112.462L111.394 13.1236H106.809V16.8402H111.394V34.2623C111.394 39.2781 114.417 42.6647 119.171 42.6647C120.566 42.6647 122.415 42.3879 123.757 41.9299V38.1494C122.69 38.4901 121.242 38.7139 120.397 38.7139C117.713 38.7139 116.033 36.7969 116.033 34.092H116.044Z"
        fill="white" />
    <path
        d="M195.481 29.6932C195.481 34.709 191.392 38.3723 186.637 38.3723C181.882 38.3723 178.977 34.9326 178.977 30.0871V13.1123H174.338V30.0871C174.338 37.3605 178.871 42.6108 186.088 42.6108C189.776 42.6108 192.967 40.811 194.932 37.7014H195.492V41.5883H200.141V13.1123H195.492V29.6932H195.481Z"
        fill="white" />
    <path
        d="M156.832 12.0481C153.081 12.0481 149.953 13.8478 147.935 17.0106H147.375V13.1237H142.736V41.5999H147.375V24.9656C147.375 20.003 151.464 16.2865 156.219 16.2865C160.974 16.2865 163.943 19.7795 163.943 24.5717V41.5999H168.593V24.5717C168.593 17.3514 164.007 12.0481 156.843 12.0481H156.832Z"
        fill="white" />
    <path d="M134.779 13.1123H130.141V41.5883H134.779V13.1123Z" fill="white" />
    <path
        d="M234.589 27.0428C234.589 18.2996 228.377 11.9846 219.764 11.9846C211.153 11.9846 204.771 18.2996 204.771 26.9895C204.771 36.1265 211.153 42.7185 219.987 42.7185C226.253 42.7185 231.346 39.7898 233.639 34.9338L229.783 32.9637C227.997 36.3502 224.298 38.4907 220.103 38.4907C214.344 38.4907 210.203 34.6569 209.525 28.9063H234.537C234.589 28.2886 234.589 27.607 234.589 27.0428ZM209.579 24.7851C210.361 19.6521 214.334 16.2124 219.544 16.2124C224.752 16.2124 228.885 19.6521 229.729 24.7851H209.59H209.579Z"
        fill="white" />
    <path
        d="M132.485 1.0481C130.53 1.0481 129.125 2.40055 129.125 4.31743C129.125 6.23431 130.52 7.70391 132.485 7.70391C134.45 7.70391 135.782 6.29821 135.782 4.31743C135.782 2.33665 134.44 1.0481 132.485 1.0481Z"
        fill="white" />
</svg>