<svg width="48" height="49" viewBox="0 0 48 49" fill="none" xmlns="http://www.w3.org/2000/svg">
<mask id="mask0_73_20734" style="mask-type:luminance" maskUnits="userSpaceOnUse" x="0" y="0" width="48" height="49">
<path d="M48 0.947266H0V48.9473H48V0.947266Z" fill="white"/>
</mask>
<g mask="url(#mask0_73_20734)">
<mask id="mask1_73_20734" style="mask-type:alpha" maskUnits="userSpaceOnUse" x="0" y="1" width="48" height="48">
<path fill-rule="evenodd" clip-rule="evenodd" d="M34.0377 48.6188C34.7937 48.9133 35.6557 48.8944 36.4188 48.5272L46.3012 43.772C47.3396 43.2723 48 42.2214 48 41.0684V8.82492C48 7.67196 47.3397 6.621 46.3012 6.12132L36.4188 1.36594C35.4174 0.884071 34.2454 1.0021 33.3665 1.64107C33.241 1.73235 33.1213 1.83426 33.0091 1.94657L14.0904 19.2065L5.84986 12.9512C5.08272 12.3689 4.00974 12.4166 3.29728 13.0647L0.654255 15.4689C-0.217225 16.2616 -0.218224 17.6327 0.652095 18.4267L7.79861 24.9466L0.652095 31.4665C-0.218224 32.2605 -0.217225 33.6316 0.654255 34.4243L3.29728 36.8285C4.00974 37.4766 5.08272 37.5243 5.84986 36.942L14.0904 30.6867L33.0091 47.9466C33.3084 48.2461 33.6598 48.4716 34.0377 48.6188ZM36.0073 14.05L21.6524 24.9466L36.0073 35.8431V14.05Z" fill="white"/>
</mask>
<g mask="url(#mask1_73_20734)">
<path d="M46.3033 6.12832L36.4131 1.3664C35.2683 0.815207 33.9002 1.04771 33.0018 1.94614L0.62515 31.4661C-0.245701 32.2601 -0.2447 33.6311 0.62731 34.4239L3.27194 36.8281C3.98484 37.4762 5.05849 37.5239 5.82606 36.9416L44.8151 7.36369C46.1231 6.37139 48.0018 7.30432 48.0018 8.94616V8.83134C48.0018 7.67886 47.3416 6.62829 46.3033 6.12832Z" fill="white"/>
<path d="M46.3033 43.7648L36.4131 48.5267C35.2683 49.0779 33.9002 48.8453 33.0018 47.9469L0.62515 18.4271C-0.245701 17.633 -0.2447 16.262 0.62731 15.4693L3.27194 13.0651C3.98484 12.417 5.05849 12.3693 5.82606 12.9516L44.8151 42.5294C46.1231 43.5217 48.0018 42.5887 48.0018 40.9469V41.0619C48.0018 42.2143 47.3416 43.2649 46.3033 43.7648Z" fill="white"/>
<path d="M36.4117 48.5272C35.2666 49.0781 33.8985 48.8451 33 47.9466C34.1071 49.0537 36 48.2696 36 46.704V3.18922C36 1.62358 34.1071 0.839502 33 1.94657C33.8985 1.04806 35.2666 0.815233 36.4117 1.36594L46.3002 6.12133C47.3392 6.62101 48 7.67197 48 8.82493V41.0684C48 42.2214 47.3392 43.2724 46.3001 43.772L36.4117 48.5272Z" fill="white"/>
</g>
</g>
</svg>
